<svg width="15" height="15" viewBox="0 0 15 15" fill="none" xmlns="http://www.w3.org/2000/svg">
<path d="M7 13C10.2824 13 13 10.2765 13 7C13 3.71765 10.2765 1 6.99412 1C3.71765 1 1 3.71765 1 7C1 10.2765 3.72353 13 7 13ZM7 12C4.22353 12 2.00588 9.77647 2.00588 7C2.00588 4.22353 4.21765 2 6.99412 2C9.77059 2 11.9941 4.22353 12 7C12.0059 9.77647 9.77647 12 7 12ZM3.92353 7.63529H6.99412C7.22353 7.63529 7.40588 7.45882 7.40588 7.22353V3.25882C7.40588 3.02941 7.22353 2.85294 6.99412 2.85294C6.76471 2.85294 6.58824 3.02941 6.58824 3.25882V6.81765H3.92353C3.68824 6.81765 3.51176 6.99412 3.51176 7.22353C3.51176 7.45882 3.68824 7.63529 3.92353 7.63529Z" fill="#212121"/>
</svg>
