<svg width="107" height="35" viewBox="0 0 107 35" fill="none" xmlns="http://www.w3.org/2000/svg">
<rect x="0.5" y="0.5" width="106" height="34" rx="4.5" stroke="#EBEBEB"/>
<path d="M24.0612 11.375C24.5618 11.3746 25.0574 11.4741 25.519 11.6677C25.9806 11.8613 26.3989 12.1451 26.7494 12.5025C27.4715 13.2356 27.8763 14.2234 27.8763 15.2525C27.8763 16.2816 27.4715 17.2694 26.7494 18.0025L19.6269 25.2144L12.5044 18.0025C11.7822 17.2694 11.3774 16.2816 11.3774 15.2525C11.3774 14.2234 11.7822 13.2356 12.5044 12.5025C12.855 12.1454 13.2734 11.8617 13.7349 11.6681C14.1965 11.4744 14.692 11.3747 15.1925 11.3747C15.693 11.3747 16.1885 11.4744 16.65 11.6681C17.1116 11.8617 17.5299 12.1454 17.8806 12.5025L19.6269 14.29L21.3662 12.5163C21.7157 12.1546 22.1344 11.8672 22.5975 11.6711C23.0605 11.475 23.5584 11.3743 24.0612 11.375ZM24.0612 10C23.3776 9.99942 22.7007 10.1353 22.0703 10.3998C21.4399 10.6642 20.8686 11.0519 20.39 11.54L19.6269 12.31L18.8637 11.54C18.3845 11.0528 17.8131 10.6658 17.1828 10.4016C16.5525 10.1375 15.8759 10.0014 15.1925 10.0014C14.5091 10.0014 13.8325 10.1375 13.2022 10.4016C12.5719 10.6658 12.0005 11.0528 11.5212 11.54C10.5463 12.5325 10 13.8681 10 15.2594C10 16.6506 10.5463 17.9863 11.5212 18.9788L19.6269 27.1875L27.7325 18.9788C28.7074 17.9863 29.2537 16.6506 29.2537 15.2594C29.2537 13.8681 28.7074 12.5325 27.7325 11.54C27.2532 11.0528 26.6817 10.6658 26.0515 10.4014C25.4212 10.137 24.7447 10.0006 24.0612 10Z" fill="#EBEBEB"/>
<path d="M42.8281 11.625V23H41.3203V11.625H42.8281ZM47.5938 16.7422V17.9766H42.5V16.7422H47.5938ZM48.3672 11.625V12.8594H42.5V11.625H48.3672ZM54.6641 21.5547V17.2031C54.6641 16.8698 54.5964 16.5807 54.4609 16.3359C54.3307 16.0859 54.1328 15.8932 53.8672 15.7578C53.6016 15.6224 53.2734 15.5547 52.8828 15.5547C52.5182 15.5547 52.1979 15.6172 51.9219 15.7422C51.651 15.8672 51.4375 16.0312 51.2812 16.2344C51.1302 16.4375 51.0547 16.6562 51.0547 16.8906H49.6094C49.6094 16.5885 49.6875 16.2891 49.8438 15.9922C50 15.6953 50.224 15.4271 50.5156 15.1875C50.8125 14.9427 51.1667 14.75 51.5781 14.6094C51.9948 14.4635 52.4583 14.3906 52.9688 14.3906C53.5833 14.3906 54.125 14.4948 54.5938 14.7031C55.0677 14.9115 55.4375 15.2266 55.7031 15.6484C55.974 16.0651 56.1094 16.5885 56.1094 17.2188V21.1562C56.1094 21.4375 56.1328 21.737 56.1797 22.0547C56.2318 22.3724 56.3073 22.6458 56.4062 22.875V23H54.8984C54.8255 22.8333 54.7682 22.612 54.7266 22.3359C54.6849 22.0547 54.6641 21.7943 54.6641 21.5547ZM54.9141 17.875L54.9297 18.8906H53.4688C53.0573 18.8906 52.6901 18.9245 52.3672 18.9922C52.0443 19.0547 51.7734 19.151 51.5547 19.2812C51.3359 19.4115 51.1693 19.5755 51.0547 19.7734C50.9401 19.9661 50.8828 20.1927 50.8828 20.4531C50.8828 20.7188 50.9427 20.9609 51.0625 21.1797C51.1823 21.3984 51.362 21.5729 51.6016 21.7031C51.8464 21.8281 52.1458 21.8906 52.5 21.8906C52.9427 21.8906 53.3333 21.7969 53.6719 21.6094C54.0104 21.4219 54.2786 21.1927 54.4766 20.9219C54.6797 20.651 54.7891 20.388 54.8047 20.1328L55.4219 20.8281C55.3854 21.0469 55.2865 21.2891 55.125 21.5547C54.9635 21.8203 54.7474 22.0755 54.4766 22.3203C54.2109 22.5599 53.8932 22.7604 53.5234 22.9219C53.1589 23.0781 52.7474 23.1562 52.2891 23.1562C51.7161 23.1562 51.2135 23.0443 50.7812 22.8203C50.3542 22.5964 50.0208 22.2969 49.7812 21.9219C49.5469 21.5417 49.4297 21.1172 49.4297 20.6484C49.4297 20.1953 49.5182 19.7969 49.6953 19.4531C49.8724 19.1042 50.1276 18.8151 50.4609 18.5859C50.7943 18.3516 51.1953 18.1745 51.6641 18.0547C52.1328 17.9349 52.6562 17.875 53.2344 17.875H54.9141ZM60.8281 21.6953L63.1406 14.5469H64.6172L61.5781 23H60.6094L60.8281 21.6953ZM58.8984 14.5469L61.2812 21.7344L61.4453 23H60.4766L57.4141 14.5469H58.8984ZM65.5 18.8672V18.6875C65.5 18.0781 65.5885 17.513 65.7656 16.9922C65.9427 16.4661 66.1979 16.0104 66.5312 15.625C66.8646 15.2344 67.2682 14.9323 67.7422 14.7188C68.2161 14.5 68.7474 14.3906 69.3359 14.3906C69.9297 14.3906 70.4635 14.5 70.9375 14.7188C71.4167 14.9323 71.8229 15.2344 72.1562 15.625C72.4948 16.0104 72.7526 16.4661 72.9297 16.9922C73.1068 17.513 73.1953 18.0781 73.1953 18.6875V18.8672C73.1953 19.4766 73.1068 20.0417 72.9297 20.5625C72.7526 21.0833 72.4948 21.5391 72.1562 21.9297C71.8229 22.3151 71.4193 22.6172 70.9453 22.8359C70.4766 23.0495 69.9453 23.1562 69.3516 23.1562C68.7578 23.1562 68.224 23.0495 67.75 22.8359C67.276 22.6172 66.8698 22.3151 66.5312 21.9297C66.1979 21.5391 65.9427 21.0833 65.7656 20.5625C65.5885 20.0417 65.5 19.4766 65.5 18.8672ZM66.9453 18.6875V18.8672C66.9453 19.2891 66.9948 19.6875 67.0938 20.0625C67.1927 20.4323 67.3411 20.7604 67.5391 21.0469C67.7422 21.3333 67.9948 21.5599 68.2969 21.7266C68.599 21.888 68.9505 21.9688 69.3516 21.9688C69.7474 21.9688 70.0938 21.888 70.3906 21.7266C70.6927 21.5599 70.9427 21.3333 71.1406 21.0469C71.3385 20.7604 71.487 20.4323 71.5859 20.0625C71.6901 19.6875 71.7422 19.2891 71.7422 18.8672V18.6875C71.7422 18.2708 71.6901 17.8776 71.5859 17.5078C71.487 17.1328 71.3359 16.8021 71.1328 16.5156C70.9349 16.224 70.6849 15.9948 70.3828 15.8281C70.0859 15.6615 69.737 15.5781 69.3359 15.5781C68.9401 15.5781 68.5911 15.6615 68.2891 15.8281C67.9922 15.9948 67.7422 16.224 67.5391 16.5156C67.3411 16.8021 67.1927 17.1328 67.0938 17.5078C66.9948 17.8776 66.9453 18.2708 66.9453 18.6875ZM76.4531 15.875V23H75.0078V14.5469H76.4141L76.4531 15.875ZM79.0938 14.5L79.0859 15.8438C78.9661 15.8177 78.8516 15.8021 78.7422 15.7969C78.638 15.7865 78.5182 15.7812 78.3828 15.7812C78.0495 15.7812 77.7552 15.8333 77.5 15.9375C77.2448 16.0417 77.0286 16.1875 76.8516 16.375C76.6745 16.5625 76.5339 16.7865 76.4297 17.0469C76.3307 17.3021 76.2656 17.5833 76.2344 17.8906L75.8281 18.125C75.8281 17.6146 75.8776 17.1354 75.9766 16.6875C76.0807 16.2396 76.2396 15.8438 76.4531 15.5C76.6667 15.151 76.9375 14.8802 77.2656 14.6875C77.599 14.4896 77.9948 14.3906 78.4531 14.3906C78.5573 14.3906 78.6771 14.4036 78.8125 14.4297C78.9479 14.4505 79.0417 14.474 79.0938 14.5ZM82 14.5469V23H80.5469V14.5469H82ZM80.4375 12.3047C80.4375 12.0703 80.5078 11.8724 80.6484 11.7109C80.7943 11.5495 81.0078 11.4688 81.2891 11.4688C81.5651 11.4688 81.776 11.5495 81.9219 11.7109C82.0729 11.8724 82.1484 12.0703 82.1484 12.3047C82.1484 12.5286 82.0729 12.7214 81.9219 12.8828C81.776 13.0391 81.5651 13.1172 81.2891 13.1172C81.0078 13.1172 80.7943 13.0391 80.6484 12.8828C80.5078 12.7214 80.4375 12.5286 80.4375 12.3047ZM87.8594 14.5469V15.6562H83.2891V14.5469H87.8594ZM84.8359 12.4922H86.2812V20.9062C86.2812 21.1927 86.3255 21.4089 86.4141 21.5547C86.5026 21.7005 86.6172 21.7969 86.7578 21.8438C86.8984 21.8906 87.0495 21.9141 87.2109 21.9141C87.3307 21.9141 87.4557 21.9036 87.5859 21.8828C87.7214 21.8568 87.8229 21.8359 87.8906 21.8203L87.8984 23C87.7839 23.0365 87.6328 23.0703 87.4453 23.1016C87.263 23.138 87.0417 23.1562 86.7812 23.1562C86.4271 23.1562 86.1016 23.0859 85.8047 22.9453C85.5078 22.8047 85.2708 22.5703 85.0938 22.2422C84.9219 21.9089 84.8359 21.4609 84.8359 20.8984V12.4922ZM93.0625 23.1562C92.474 23.1562 91.9401 23.0573 91.4609 22.8594C90.987 22.6562 90.5781 22.3724 90.2344 22.0078C89.8958 21.6432 89.6354 21.2109 89.4531 20.7109C89.2708 20.2109 89.1797 19.6641 89.1797 19.0703V18.7422C89.1797 18.0547 89.2812 17.4427 89.4844 16.9062C89.6875 16.3646 89.9635 15.9062 90.3125 15.5312C90.6615 15.1562 91.0573 14.8724 91.5 14.6797C91.9427 14.487 92.401 14.3906 92.875 14.3906C93.4792 14.3906 94 14.4948 94.4375 14.7031C94.8802 14.9115 95.2422 15.2031 95.5234 15.5781C95.8047 15.9479 96.013 16.3854 96.1484 16.8906C96.2839 17.3906 96.3516 17.9375 96.3516 18.5312V19.1797H90.0391V18H94.9062V17.8906C94.8854 17.5156 94.8073 17.151 94.6719 16.7969C94.5417 16.4427 94.3333 16.151 94.0469 15.9219C93.7604 15.6927 93.3698 15.5781 92.875 15.5781C92.5469 15.5781 92.2448 15.6484 91.9688 15.7891C91.6927 15.9245 91.4557 16.1276 91.2578 16.3984C91.0599 16.6693 90.9062 17 90.7969 17.3906C90.6875 17.7812 90.6328 18.2318 90.6328 18.7422V19.0703C90.6328 19.4714 90.6875 19.849 90.7969 20.2031C90.9115 20.5521 91.0755 20.8594 91.2891 21.125C91.5078 21.3906 91.7708 21.599 92.0781 21.75C92.3906 21.901 92.7448 21.9766 93.1406 21.9766C93.651 21.9766 94.0833 21.8724 94.4375 21.6641C94.7917 21.4557 95.1016 21.1771 95.3672 20.8281L96.2422 21.5234C96.0599 21.7995 95.8281 22.0625 95.5469 22.3125C95.2656 22.5625 94.9193 22.7656 94.5078 22.9219C94.1016 23.0781 93.6198 23.1562 93.0625 23.1562Z" fill="#EBEBEB"/>
</svg>
