<svg width="38" height="38" viewBox="0 0 38 38" fill="none" xmlns="http://www.w3.org/2000/svg">
<path d="M36.0652 21.189H1.6857C-1.12622 21.189 1.27131 26.3642 2.53853 27.1574L6.90626 29.8884C7.34285 30.1636 7.56115 30.3 7.74244 30.4989C9.3667 32.2934 9.66269 35.4545 11.7161 36.8281C12.5338 37.3761 13.5013 37.3761 15.4382 37.3761H22.3127C24.2496 37.3761 25.2171 37.3761 26.0348 36.8281C28.0882 35.4545 28.3842 32.2934 30.0085 30.4989C30.1897 30.3 30.408 30.1636 30.8446 29.8884L35.2105 27.1574C36.4796 26.3642 38.8753 21.189 36.0652 21.189Z" stroke="#BF5B23" stroke-width="0.75" stroke-linecap="round" stroke-linejoin="round"/>
<path d="M24.4254 21.189C24.4254 17.5092 23.2559 13.9801 21.1743 11.3781C19.0927 8.77607 16.2695 7.31427 13.3257 7.31427C10.3818 7.31427 7.55858 8.77607 5.47698 11.3781C3.39538 13.9801 2.22595 17.5092 2.22595 21.189" stroke="#BF5B23" stroke-width="0.75" stroke-linecap="round" stroke-linejoin="round"/>
<path d="M35.525 21.1891C35.525 14.8044 31.4089 9.62684 26.3308 9.62684C24.6214 9.62684 23.0212 10.2142 21.6504 11.2363M9.62573 19.39C9.62573 16.5526 11.2814 14.2517 13.3256 14.2517C15.3698 14.2517 17.0255 16.5526 17.0255 19.39V23.5016M13.3256 6.28765C14.123 2.20386 17.6323 -0.358339 21.1639 0.56433C24.6954 1.48931 26.9098 5.54536 26.1125 9.62684" stroke="#BF5B23" stroke-width="0.75" stroke-linecap="round" stroke-linejoin="round"/>
</svg>
