<svg width="82" height="35" viewBox="0 0 82 35" fill="none" xmlns="http://www.w3.org/2000/svg">
<rect x="0.5" y="0.5" width="81" height="34" rx="4.5" stroke="#EBEBEB"/>
<path d="M24.5339 13.0961V9.56304H15.93V13.0961H14.8545V8.38535H25.6094V13.0961H24.5339ZM26.2708 17.2181C26.5756 17.2181 26.8312 17.105 27.0377 16.8789C27.2442 16.6528 27.347 16.3733 27.3463 16.0404C27.3456 15.7075 27.2427 15.4276 27.0377 15.2007C26.8326 14.9738 26.577 14.8607 26.2708 14.8615C25.9647 14.8623 25.7094 14.9753 25.5051 15.2007C25.3007 15.426 25.1975 15.7059 25.1953 16.0404C25.1932 16.3748 25.2964 16.6543 25.5051 16.8789C25.7137 17.1034 25.9683 17.2165 26.2708 17.2181ZM24.5339 25.3253V19.9809H15.93V25.3253H24.5339ZM25.6094 26.503H14.8545V21.7922H11.1732V15.4515C11.1732 14.7842 11.38 14.2247 11.7937 13.7733C12.2074 13.3218 12.7176 13.0957 13.3241 13.0949H27.1398C27.7493 13.0949 28.2601 13.3211 28.6724 13.7733C29.0847 14.2255 29.2908 14.7845 29.2908 15.4503V21.7922H25.6094V26.503ZM28.2153 20.6145V15.4515C28.2153 15.1178 28.1124 14.8379 27.9067 14.6118C27.7009 14.3857 27.4453 14.2726 27.1398 14.2726H13.3241C13.0194 14.2726 12.7642 14.3857 12.5584 14.6118C12.3526 14.8379 12.2494 15.1178 12.2486 15.4515V20.6145H14.8545V18.8032H25.6094V20.6145H28.2153Z" fill="#EBEBEB"/>
<path d="M43.5156 18.5391H40.4766V17.3125H43.5156C44.1042 17.3125 44.5807 17.2188 44.9453 17.0312C45.3099 16.8438 45.5755 16.5833 45.7422 16.25C45.9141 15.9167 46 15.5365 46 15.1094C46 14.7188 45.9141 14.3516 45.7422 14.0078C45.5755 13.6641 45.3099 13.388 44.9453 13.1797C44.5807 12.9661 44.1042 12.8594 43.5156 12.8594H40.8281V23H39.3203V11.625H43.5156C44.375 11.625 45.1016 11.7734 45.6953 12.0703C46.2891 12.3672 46.7396 12.7786 47.0469 13.3047C47.3542 13.8255 47.5078 14.4219 47.5078 15.0938C47.5078 15.8229 47.3542 16.4453 47.0469 16.9609C46.7396 17.4766 46.2891 17.8698 45.6953 18.1406C45.1016 18.4062 44.375 18.5391 43.5156 18.5391ZM50.6406 15.875V23H49.1953V14.5469H50.6016L50.6406 15.875ZM53.2812 14.5L53.2734 15.8438C53.1536 15.8177 53.0391 15.8021 52.9297 15.7969C52.8255 15.7865 52.7057 15.7812 52.5703 15.7812C52.237 15.7812 51.9427 15.8333 51.6875 15.9375C51.4323 16.0417 51.2161 16.1875 51.0391 16.375C50.862 16.5625 50.7214 16.7865 50.6172 17.0469C50.5182 17.3021 50.4531 17.5833 50.4219 17.8906L50.0156 18.125C50.0156 17.6146 50.0651 17.1354 50.1641 16.6875C50.2682 16.2396 50.4271 15.8438 50.6406 15.5C50.8542 15.151 51.125 14.8802 51.4531 14.6875C51.7865 14.4896 52.1823 14.3906 52.6406 14.3906C52.7448 14.3906 52.8646 14.4036 53 14.4297C53.1354 14.4505 53.2292 14.474 53.2812 14.5ZM56.1875 14.5469V23H54.7344V14.5469H56.1875ZM54.625 12.3047C54.625 12.0703 54.6953 11.8724 54.8359 11.7109C54.9818 11.5495 55.1953 11.4688 55.4766 11.4688C55.7526 11.4688 55.9635 11.5495 56.1094 11.7109C56.2604 11.8724 56.3359 12.0703 56.3359 12.3047C56.3359 12.5286 56.2604 12.7214 56.1094 12.8828C55.9635 13.0391 55.7526 13.1172 55.4766 13.1172C55.1953 13.1172 54.9818 13.0391 54.8359 12.8828C54.6953 12.7214 54.625 12.5286 54.625 12.3047ZM59.9531 16.3516V23H58.5078V14.5469H59.875L59.9531 16.3516ZM59.6094 18.4531L59.0078 18.4297C59.013 17.8516 59.099 17.3177 59.2656 16.8281C59.4323 16.3333 59.6667 15.9036 59.9688 15.5391C60.2708 15.1745 60.6302 14.8932 61.0469 14.6953C61.4688 14.4922 61.9349 14.3906 62.4453 14.3906C62.862 14.3906 63.237 14.4479 63.5703 14.5625C63.9036 14.6719 64.1875 14.849 64.4219 15.0938C64.6615 15.3385 64.8438 15.6562 64.9688 16.0469C65.0938 16.4323 65.1562 16.9036 65.1562 17.4609V23H63.7031V17.4453C63.7031 17.0026 63.638 16.6484 63.5078 16.3828C63.3776 16.112 63.1875 15.9167 62.9375 15.7969C62.6875 15.6719 62.3802 15.6094 62.0156 15.6094C61.6562 15.6094 61.3281 15.6849 61.0312 15.8359C60.7396 15.987 60.487 16.1953 60.2734 16.4609C60.0651 16.7266 59.901 17.0312 59.7812 17.375C59.6667 17.7135 59.6094 18.0729 59.6094 18.4531ZM70.8906 14.5469V15.6562H66.3203V14.5469H70.8906ZM67.8672 12.4922H69.3125V20.9062C69.3125 21.1927 69.3568 21.4089 69.4453 21.5547C69.5339 21.7005 69.6484 21.7969 69.7891 21.8438C69.9297 21.8906 70.0807 21.9141 70.2422 21.9141C70.362 21.9141 70.487 21.9036 70.6172 21.8828C70.7526 21.8568 70.8542 21.8359 70.9219 21.8203L70.9297 23C70.8151 23.0365 70.6641 23.0703 70.4766 23.1016C70.2943 23.138 70.0729 23.1562 69.8125 23.1562C69.4583 23.1562 69.1328 23.0859 68.8359 22.9453C68.5391 22.8047 68.3021 22.5703 68.125 22.2422C67.9531 21.9089 67.8672 21.4609 67.8672 20.8984V12.4922Z" fill="#EBEBEB"/>
</svg>
