<svg width="22" height="22" viewBox="0 0 22 22" fill="none" xmlns="http://www.w3.org/2000/svg">
<path d="M11 20.1667C16.0626 20.1667 20.1667 16.0626 20.1667 11C20.1667 5.93739 16.0626 1.83333 11 1.83333C5.9374 1.83333 1.83334 5.93739 1.83334 11C1.83334 16.0626 5.9374 20.1667 11 20.1667Z" stroke="#C96126" stroke-width="1.5" stroke-linecap="round" stroke-linejoin="round"/>
<path d="M7.45159 10.6315L11.1173 5.69067C11.4043 5.30383 11.9414 5.544 11.9414 6.05917V9.8835C11.9414 10.1915 12.1523 10.4418 12.4126 10.4418H14.1946C14.5998 10.4418 14.8161 11.0083 14.5484 11.3685L10.8827 16.3093C10.5958 16.6962 10.0586 16.456 10.0586 15.9408V12.1165C10.0586 11.8085 9.84775 11.5583 9.58742 11.5583H7.80542C7.40117 11.5583 7.18484 10.9918 7.4525 10.6315" stroke="#C96126" stroke-width="1.5" stroke-linecap="round" stroke-linejoin="round"/>
</svg>
