<svg width="20" height="20" viewBox="0 0 20 20" fill="none" xmlns="http://www.w3.org/2000/svg">
<path d="M0.750122 7.95024C1.45212 4.51584 4.05312 1.76724 7.41552 0.831244C7.69812 0.752944 7.83852 0.713344 7.91502 0.797044C7.99152 0.881644 7.93482 1.02024 7.82322 1.29924L7.05012 3.00024M11.5501 0.750244C14.9845 1.45224 17.7331 4.05324 18.6691 7.41564C18.7474 7.69824 18.787 7.83864 18.7033 7.91514C18.6187 7.99164 18.4801 7.93494 18.2011 7.82334L16.5001 7.05024M18.7501 11.5502C18.0481 14.9846 15.4471 17.7332 12.0847 18.6692C11.8021 18.7475 11.6617 18.7871 11.5852 18.7034C11.5087 18.6188 11.5654 18.4802 11.677 18.2012L12.4501 16.5002M7.95012 18.7502C4.51572 18.0482 1.76712 15.4472 0.831122 12.0848C0.752822 11.8022 0.713222 11.6618 0.796922 11.5853C0.881522 11.5088 1.02012 11.5655 1.29912 11.6771L3.00012 12.4502M6.70182 9.44874L9.85092 5.40594C10.0975 5.09004 10.5592 5.28714 10.5592 5.70834V8.83674C10.5592 9.08874 10.7392 9.29394 10.9633 9.29394H12.4951C12.8425 9.29394 13.0279 9.75654 12.7984 10.0517L9.64932 14.0945C9.40272 14.4104 8.94102 14.2133 8.94102 13.7921V10.6637C8.94102 10.4117 8.76102 10.2065 8.53692 10.2065H7.00512C6.65772 10.2065 6.47142 9.74394 6.70182 9.44874Z" stroke="#373737" stroke-width="1.5" stroke-linecap="round" stroke-linejoin="round"/>
</svg>
